<?xml version="1.0" standalone="no"?>
<!DOCTYPE svg PUBLIC "-//W3C//DTD SVG 20010904//EN"
 "http://www.w3.org/TR/2001/REC-SVG-20010904/DTD/svg10.dtd">
<svg version="1.0" xmlns="http://www.w3.org/2000/svg"
 width="700.000000pt" height="700.000000pt" viewBox="0 0 700.000000 700.000000"
 preserveAspectRatio="xMidYMid meet">
<metadata>
Created by potrace 1.14, written by Peter Selinger 2001-2017
</metadata>
<g transform="translate(0.000000,700.000000) scale(0.100000,-0.100000)"
fill="#000000" stroke="none">
<path d="M815 6804 c-253 -54 -468 -232 -572 -474 -68 -160 -64 47 -61 -2865
3 -2499 4 -2633 21 -2690 85 -280 300 -495 577 -572 62 -17 185 -18 2720 -18
2535 0 2658 1 2720 18 279 78 499 298 577 577 17 62 18 185 18 2720 0 2535 -1
2658 -18 2720 -77 277 -292 492 -572 577 -57 17 -190 18 -2700 20 -2302 1
-2649 0 -2710 -13z m5297 -335 c174 -36 320 -182 357 -357 16 -75 16 -5149 0
-5224 -37 -175 -183 -321 -357 -357 -76 -16 -5149 -16 -5224 0 -175 37 -321
183 -357 357 -16 75 -16 5149 0 5224 35 170 174 313 342 354 71 17 5158 20
5239 3z"/>
<path d="M1742 6239 c-226 -29 -440 -136 -615 -308 -143 -139 -238 -293 -302
-484 -165 -500 -8 -1055 387 -1371 142 -114 333 -198 508 -225 56 -9 619 -11
2170 -9 l2095 3 50 27 c64 34 118 90 147 153 22 47 23 64 26 318 l4 267 -2199
0 c-2019 0 -2203 1 -2249 17 -107 35 -97 39 113 46 108 4 1120 7 2250 7 l2053
0 0 370 0 370 -2246 0 c-1340 0 -2243 4 -2240 9 4 5 27 17 54 28 45 17 137 18
2255 21 l2209 2 -4 268 c-3 263 -3 268 -29 322 -35 74 -67 110 -131 145 l-53
30 -2095 1 c-1152 1 -2123 -2 -2158 -7z"/>
<path d="M1129 3527 c-99 -28 -181 -97 -223 -186 -21 -46 -21 -49 -24 -1308
l-2 -1263 330 0 330 0 0 940 c0 517 2 940 4 940 2 0 404 -215 894 -479 489
-263 909 -486 932 -495 44 -17 131 -23 192 -11 20 4 445 227 945 495 l908 488
3 -939 2 -939 335 0 336 0 -3 1252 c-3 1423 4 1300 -90 1403 -83 91 -196 130
-308 106 -37 -8 -370 -182 -1130 -591 l-1077 -579 -1024 551 c-563 303 -1055
566 -1094 584 -82 40 -166 51 -236 31z"/>
</g>
</svg>
