<?xml version="1.0" encoding="UTF-8"?>
<svg id="Calque_1" data-name="Calque 1" xmlns="http://www.w3.org/2000/svg" viewBox="0 0 604 1000">
  <defs>
    <style>
      .cls-1 {
        fill: #04183b;
        stroke-width: 0px;
      }
    </style>
  </defs>
  <path class="cls-1" d="m456.88,962.42H151.39c-64.92,0-117.73-52.82-117.73-117.73V148.73c0-64.92,52.82-117.73,117.73-117.73h305.49c64.92,0,117.73,52.82,117.73,117.73v695.95c0,64.92-52.82,117.73-117.73,117.73ZM151.39,62.7c-47.44,0-86.04,38.6-86.04,86.04v695.95c0,47.44,38.6,86.04,86.04,86.04h305.49c47.44,0,86.04-38.6,86.04-86.04V148.73c0-47.44-38.6-86.04-86.04-86.04H151.39Z"/>
  <path class="cls-1" d="m441.85,380.17H168.15c-46.26,0-83.9,37.64-83.9,83.9v149.18h56.6v-74.09h328.3v74.09h56.6v-149.18c0-46.26-37.64-83.9-83.9-83.9Zm-301,79.5h0c0-12.64,10.25-22.89,22.89-22.89h282.51c12.64,0,22.89,10.25,22.89,22.89h0c0,12.64-10.25,22.89-22.89,22.89H163.74c-12.64,0-22.89-10.25-22.89-22.89Z"/>
  <g>
    <path class="cls-1" d="m525.74,691.42v-9.58c0-19.41-15.73-35.14-35.14-35.14H119.13c-19.41,0-35.14,15.73-35.14,35.14v9.58c0,6.56,5.32,11.88,11.88,11.88h180.7v139.17H95.86c-6.56,0-11.88,5.32-11.88,11.88v9.58c0,19.41,15.73,35.14,35.14,35.14h371.47c19.41,0,35.14-15.73,35.14-35.14v-9.58c0-6.56-5.32-11.88-11.88-11.88h-180.7s0-139.17,0-139.17h180.7c6.56,0,11.88-5.32,11.88-11.88Z"/>
    <path class="cls-1" d="m490.59,900.2H119.13c-20,0-36.28-16.27-36.28-36.27v-9.58c0-7.17,5.84-13.01,13.01-13.01h179.57v-136.9H95.86c-7.17,0-13.01-5.84-13.01-13.01v-9.58c0-20,16.27-36.27,36.28-36.27h371.47c20,0,36.28,16.27,36.28,36.27v9.58c0,7.17-5.84,13.01-13.01,13.01h-179.57v136.9h179.57c7.17,0,13.01,5.84,13.01,13.01v9.58c0,20-16.27,36.27-36.28,36.27Zm-394.73-56.6c-5.92,0-10.74,4.82-10.74,10.75v9.58c0,18.75,15.26,34.01,34.01,34.01h371.47c18.75,0,34.01-15.26,34.01-34.01v-9.58c0-5.93-4.82-10.75-10.75-10.75h-181.83v-141.43h181.83c5.93,0,10.75-4.82,10.75-10.75v-9.58c0-18.75-15.26-34.01-34.01-34.01H119.13c-18.75,0-34.01,15.26-34.01,34.01v9.58c0,5.93,4.82,10.75,10.74,10.75h181.83v141.43H95.86Z"/>
  </g>
  <path class="cls-1" d="m526.29,332.62h-56.6v-159.27l-150.45,80.89c-8.37,4.5-18.44,4.5-26.8,0l-150.45-80.89v159.27h-56.6V126c0-9.96,5.23-19.18,13.78-24.29,8.55-5.11,19.15-5.35,27.92-.63l178.75,96.11,178.75-96.11c8.77-4.72,19.37-4.48,27.92.63,8.55,5.11,13.78,14.33,13.78,24.29v206.62Z"/>
</svg>