<?xml version="1.0" encoding="UTF-8"?>
<svg id="Calque_1" data-name="Calque 1" xmlns="http://www.w3.org/2000/svg" viewBox="0 0 604 1000">
  <defs>
    <style>
      .cls-1 {
        fill: #04183b;
        stroke-width: 0px;
      }
    </style>
  </defs>
  <path class="cls-1" d="m442.56,924.37H162.95c-47.68,0-86.47-38.79-86.47-86.47s38.79-86.47,86.47-86.47h279.62c23.87,0,48.05,10,64.69,26.75,13.17,13.26,20.36,29.84,20.25,46.69l-57.02-.38c0-1.11-.95-3.37-3.68-6.12-5.8-5.84-15.76-9.91-24.23-9.91H162.95c-16.23,0-29.44,13.21-29.44,29.44s13.21,29.44,29.44,29.44h279.62c8.36,0,18.3-4.12,24.16-10.01,2.99-3.01,3.77-5.32,3.77-6.12l57.02-.35c.1,16.79-7.13,33.36-20.35,46.66-16.7,16.8-40.85,26.84-64.6,26.84Z"/>
  <g>
    <path class="cls-1" d="m524.52,579.35v-9.65c0-19.55-15.85-35.41-35.41-35.41H114.88c-19.55,0-35.41,15.85-35.41,35.41v9.65c0,6.61,5.36,11.97,11.97,11.97h182.04v69.49H91.44c-6.61,0-11.97,5.36-11.97,11.97v9.65c0,19.55,15.85,35.41,35.41,35.41h374.23c19.55,0,35.41-15.85,35.41-35.41v-9.65c0-6.61-5.36-11.97-11.97-11.97h-182.04s0-69.49,0-69.49h182.04c6.61,0,11.97-5.36,11.97-11.97Z"/>
    <path class="cls-1" d="m489.12,718.97H114.88c-20.15,0-36.55-16.39-36.55-36.55v-9.65c0-7.23,5.88-13.11,13.11-13.11h180.9v-67.21H91.44c-7.23,0-13.11-5.88-13.11-13.11v-9.65c0-20.15,16.39-36.55,36.55-36.55h374.23c20.15,0,36.55,16.39,36.55,36.55v9.65c0,7.23-5.88,13.11-13.11,13.11h-180.9v67.21h180.9c7.23,0,13.11,5.88,13.11,13.11v9.65c0,20.15-16.39,36.55-36.55,36.55Zm-397.67-57.02c-5.97,0-10.83,4.86-10.83,10.82v9.65c0,18.89,15.37,34.26,34.26,34.26h374.23c18.89,0,34.27-15.37,34.27-34.26v-9.65c0-5.97-4.86-10.82-10.83-10.82h-183.18v-71.78h183.18c5.97,0,10.83-4.86,10.83-10.82v-9.65c0-18.89-15.37-34.26-34.27-34.26H114.88c-18.89,0-34.26,15.37-34.26,34.26v9.65c0,5.97,4.86,10.82,10.83,10.82h183.18v71.78H91.44Z"/>
  </g>
  <g>
    <path class="cls-1" d="m461.86,413.46H137.82c-33.89,0-61.45-27.57-61.45-61.45s27.57-61.45,61.45-61.45h324.04c33.89,0,61.45,27.57,61.45,61.45s-27.57,61.45-61.45,61.45Zm-324.04-65.88c-2.36,0-4.43,2.07-4.43,4.43s2.07,4.43,4.43,4.43h324.04c2.36,0,4.43-2.07,4.43-4.43s-2.07-4.43-4.43-4.43H137.82Z"/>
    <rect class="cls-1" x="44.69" y="383.58" width="120.16" height="57.02" transform="translate(-307.5 516.14) rotate(-89.9)"/>
    <rect class="cls-1" x="290.13" y="242.32" width="57.02" height="370.93" transform="translate(-169.99 641.74) rotate(-76.97)"/>
  </g>
  <g>
    <g>
      <path class="cls-1" d="m166.15,256.95c-46.61,0-84.51-40.83-84.51-91.02s37.9-91.02,84.48-91.02l306.75-.31c12.17-.01,22.05,9.85,22.06,22.02l.03,34.98-328.82.33c-17.42,0-31.58,15.25-31.58,33.99s14.15,33.99,31.55,33.99l328.8-.33.03,34.99c.01,12.17-9.85,22.05-22.02,22.06l-306.78.31Z"/>
      <path class="cls-1" d="m166.15,258.09h0c-47.23,0-85.65-41.34-85.65-92.16s38.41-92.16,85.62-92.16l306.75-.31h.02c6.18,0,12,2.41,16.38,6.78,4.38,4.37,6.8,10.19,6.81,16.39l.03,36.12-329.96.33c-16.78,0-30.44,14.74-30.44,32.85s13.64,32.85,30.41,32.85l329.94-.33.03,36.13c.01,12.78-10.38,23.19-23.16,23.2l-306.78.31ZM472.9,75.75h-.02l-306.75.31c-45.96,0-83.34,40.32-83.34,89.88s37.4,89.87,83.36,89.88l306.78-.31c11.53-.01,20.89-9.4,20.88-20.92l-.03-33.85-327.66.33c-18.03,0-32.69-15.76-32.69-35.13s14.68-35.13,32.72-35.13l327.68-.33-.03-33.84c0-5.58-2.19-10.83-6.14-14.78-3.94-3.94-9.19-6.11-14.76-6.11Z"/>
    </g>
    <g>
      <line class="cls-1" x1="108.67" y1="165.84" x2="494.3" y2="165.17"/>
      <rect class="cls-1" x="108.67" y="136.99" width="385.63" height="57.02" transform="translate(-.28 .52) rotate(-.1)"/>
    </g>
  </g>
  <path class="cls-1" d="m455.88,969.18H148.12c-65.4,0-118.61-53.21-118.61-118.61V149.43c0-65.4,53.21-118.61,118.61-118.61h307.76c65.4,0,118.61,53.21,118.61,118.61v701.14c0,65.4-53.21,118.61-118.61,118.61ZM148.12,62.75c-47.79,0-86.68,38.88-86.68,86.68v701.14c0,47.79,38.88,86.68,86.68,86.68h307.76c47.79,0,86.68-38.88,86.68-86.68V149.43c0-47.79-38.88-86.68-86.68-86.68H148.12Z"/>
</svg>